<mxfile host="app.diagrams.net" modified="2023-06-01T16:58:37.088Z" agent="Mozilla/5.0 (Windows NT 10.0; Win64; x64; rv:109.0) Gecko/20100101 Firefox/113.0" etag="wwIPlV8kK3aGXHgGhH-V" version="21.3.6" type="device">
  <diagram name="PÃ¡gina-1" id="30-rEjC_GcisaVwthBQx">
    <mxGraphModel dx="585" dy="316" grid="1" gridSize="10" guides="1" tooltips="1" connect="1" arrows="1" fold="1" page="1" pageScale="1" pageWidth="827" pageHeight="1169" math="0" shadow="0">
      <root>
        <mxCell id="0" />
        <mxCell id="1" parent="0" />
        <mxCell id="TEfpkvqrKe-TD6mFksQv-2" value="&lt;div&gt;MUX&lt;/div&gt;&lt;div&gt;8 a 1&lt;br&gt;&lt;/div&gt;" style="shape=trapezoid;perimeter=trapezoidPerimeter;whiteSpace=wrap;html=1;fixedSize=1;rotation=90;" vertex="1" parent="1">
          <mxGeometry x="330" y="420" width="160" height="60" as="geometry" />
        </mxCell>
        <mxCell id="TEfpkvqrKe-TD6mFksQv-3" value="" style="endArrow=none;html=1;rounded=0;fillColor=#f5f5f5;strokeColor=#0F0F0F;" edge="1" parent="1" target="TEfpkvqrKe-TD6mFksQv-2">
          <mxGeometry width="50" height="50" relative="1" as="geometry">
            <mxPoint x="290" y="590" as="sourcePoint" />
            <mxPoint x="420" y="560" as="targetPoint" />
            <Array as="points">
              <mxPoint x="410" y="590" />
            </Array>
          </mxGeometry>
        </mxCell>
        <mxCell id="TEfpkvqrKe-TD6mFksQv-6" value="" style="endArrow=none;html=1;rounded=0;entryX=0.899;entryY=0.175;entryDx=0;entryDy=0;entryPerimeter=0;fillColor=#f5f5f5;strokeColor=#0F0F0F;" edge="1" parent="1" target="TEfpkvqrKe-TD6mFksQv-2">
          <mxGeometry width="50" height="50" relative="1" as="geometry">
            <mxPoint x="290" y="610" as="sourcePoint" />
            <mxPoint x="430" y="520" as="targetPoint" />
            <Array as="points">
              <mxPoint x="430" y="610" />
            </Array>
          </mxGeometry>
        </mxCell>
        <mxCell id="TEfpkvqrKe-TD6mFksQv-7" value="" style="endArrow=none;html=1;rounded=0;entryX=0.979;entryY=0.837;entryDx=0;entryDy=0;entryPerimeter=0;fillColor=#f5f5f5;strokeColor=#0F0F0F;" edge="1" parent="1" target="TEfpkvqrKe-TD6mFksQv-2">
          <mxGeometry width="50" height="50" relative="1" as="geometry">
            <mxPoint x="290" y="570" as="sourcePoint" />
            <mxPoint x="390" y="520" as="targetPoint" />
            <Array as="points">
              <mxPoint x="390" y="570" />
            </Array>
          </mxGeometry>
        </mxCell>
        <mxCell id="TEfpkvqrKe-TD6mFksQv-9" value="" style="endArrow=none;html=1;rounded=0;entryX=0.063;entryY=0.999;entryDx=0;entryDy=0;entryPerimeter=0;strokeColor=#0F0F0F;" edge="1" parent="1" target="TEfpkvqrKe-TD6mFksQv-2">
          <mxGeometry width="50" height="50" relative="1" as="geometry">
            <mxPoint x="340" y="380" as="sourcePoint" />
            <mxPoint x="370" y="460" as="targetPoint" />
          </mxGeometry>
        </mxCell>
        <mxCell id="TEfpkvqrKe-TD6mFksQv-10" value="" style="endArrow=none;html=1;rounded=0;entryX=0.063;entryY=0.999;entryDx=0;entryDy=0;entryPerimeter=0;strokeColor=#0F0F0F;" edge="1" parent="1">
          <mxGeometry width="50" height="50" relative="1" as="geometry">
            <mxPoint x="340" y="400" as="sourcePoint" />
            <mxPoint x="380" y="400" as="targetPoint" />
          </mxGeometry>
        </mxCell>
        <mxCell id="TEfpkvqrKe-TD6mFksQv-11" value="" style="endArrow=none;html=1;rounded=0;entryX=0.063;entryY=0.999;entryDx=0;entryDy=0;entryPerimeter=0;strokeColor=#0F0F0F;" edge="1" parent="1">
          <mxGeometry width="50" height="50" relative="1" as="geometry">
            <mxPoint x="340" y="420" as="sourcePoint" />
            <mxPoint x="380" y="420" as="targetPoint" />
          </mxGeometry>
        </mxCell>
        <mxCell id="TEfpkvqrKe-TD6mFksQv-12" value="" style="endArrow=none;html=1;rounded=0;entryX=0.063;entryY=0.999;entryDx=0;entryDy=0;entryPerimeter=0;strokeColor=#0F0F0F;" edge="1" parent="1">
          <mxGeometry width="50" height="50" relative="1" as="geometry">
            <mxPoint x="340" y="440" as="sourcePoint" />
            <mxPoint x="380" y="440" as="targetPoint" />
          </mxGeometry>
        </mxCell>
        <mxCell id="TEfpkvqrKe-TD6mFksQv-13" value="" style="endArrow=none;html=1;rounded=0;entryX=0.063;entryY=0.999;entryDx=0;entryDy=0;entryPerimeter=0;strokeColor=#0F0F0F;" edge="1" parent="1">
          <mxGeometry width="50" height="50" relative="1" as="geometry">
            <mxPoint x="340" y="460" as="sourcePoint" />
            <mxPoint x="380" y="460" as="targetPoint" />
          </mxGeometry>
        </mxCell>
        <mxCell id="TEfpkvqrKe-TD6mFksQv-14" value="" style="endArrow=none;html=1;rounded=0;entryX=0.063;entryY=0.999;entryDx=0;entryDy=0;entryPerimeter=0;strokeColor=#0F0F0F;" edge="1" parent="1">
          <mxGeometry width="50" height="50" relative="1" as="geometry">
            <mxPoint x="340" y="480" as="sourcePoint" />
            <mxPoint x="380" y="480" as="targetPoint" />
          </mxGeometry>
        </mxCell>
        <mxCell id="TEfpkvqrKe-TD6mFksQv-15" value="" style="endArrow=none;html=1;rounded=0;entryX=0.063;entryY=0.999;entryDx=0;entryDy=0;entryPerimeter=0;strokeColor=#0F0F0F;" edge="1" parent="1">
          <mxGeometry width="50" height="50" relative="1" as="geometry">
            <mxPoint x="340" y="500" as="sourcePoint" />
            <mxPoint x="380" y="500" as="targetPoint" />
          </mxGeometry>
        </mxCell>
        <mxCell id="TEfpkvqrKe-TD6mFksQv-16" value="" style="endArrow=none;html=1;rounded=0;entryX=0.063;entryY=0.999;entryDx=0;entryDy=0;entryPerimeter=0;strokeColor=#0F0F0F;" edge="1" parent="1">
          <mxGeometry width="50" height="50" relative="1" as="geometry">
            <mxPoint x="340" y="520" as="sourcePoint" />
            <mxPoint x="380" y="520" as="targetPoint" />
          </mxGeometry>
        </mxCell>
        <mxCell id="TEfpkvqrKe-TD6mFksQv-17" value="" style="endArrow=none;html=1;rounded=0;entryX=0.195;entryY=0.979;entryDx=0;entryDy=0;entryPerimeter=0;strokeColor=#0F0F0F;" edge="1" parent="1" target="TEfpkvqrKe-TD6mFksQv-23">
          <mxGeometry width="50" height="50" relative="1" as="geometry">
            <mxPoint x="440" y="449.85" as="sourcePoint" />
            <mxPoint x="480" y="449.85" as="targetPoint" />
          </mxGeometry>
        </mxCell>
        <mxCell id="TEfpkvqrKe-TD6mFksQv-23" value="" style="rounded=0;whiteSpace=wrap;html=1;rotation=90;" vertex="1" parent="1">
          <mxGeometry x="483.75" y="441.25" width="75" height="62.5" as="geometry" />
        </mxCell>
        <mxCell id="TEfpkvqrKe-TD6mFksQv-24" value="" style="triangle;whiteSpace=wrap;html=1;" vertex="1" parent="1">
          <mxGeometry x="490" y="467.5" width="10" height="10" as="geometry" />
        </mxCell>
        <mxCell id="TEfpkvqrKe-TD6mFksQv-27" value="" style="endArrow=none;html=1;rounded=0;entryX=0.2;entryY=-0.002;entryDx=0;entryDy=0;entryPerimeter=0;" edge="1" parent="1" target="TEfpkvqrKe-TD6mFksQv-23">
          <mxGeometry width="50" height="50" relative="1" as="geometry">
            <mxPoint x="590" y="450" as="sourcePoint" />
            <mxPoint x="570" y="440" as="targetPoint" />
          </mxGeometry>
        </mxCell>
        <mxCell id="TEfpkvqrKe-TD6mFksQv-28" value="" style="endArrow=none;html=1;rounded=0;entryX=0;entryY=0.5;entryDx=0;entryDy=0;" edge="1" parent="1" target="TEfpkvqrKe-TD6mFksQv-24">
          <mxGeometry width="50" height="50" relative="1" as="geometry">
            <mxPoint x="290" y="630" as="sourcePoint" />
            <mxPoint x="510" y="480" as="targetPoint" />
            <Array as="points">
              <mxPoint x="460" y="630" />
              <mxPoint x="460" y="473" />
            </Array>
          </mxGeometry>
        </mxCell>
        <mxCell id="TEfpkvqrKe-TD6mFksQv-29" value="sel 2" style="text;html=1;align=center;verticalAlign=middle;resizable=0;points=[];autosize=1;strokeColor=none;fillColor=none;" vertex="1" parent="1">
          <mxGeometry x="290" y="540" width="50" height="30" as="geometry" />
        </mxCell>
        <mxCell id="TEfpkvqrKe-TD6mFksQv-30" value="&lt;div&gt;Clk&lt;/div&gt;" style="text;html=1;align=center;verticalAlign=middle;resizable=0;points=[];autosize=1;strokeColor=none;fillColor=none;" vertex="1" parent="1">
          <mxGeometry x="295" y="630" width="40" height="30" as="geometry" />
        </mxCell>
        <mxCell id="TEfpkvqrKe-TD6mFksQv-32" value="sel 1" style="text;whiteSpace=wrap;html=1;" vertex="1" parent="1">
          <mxGeometry x="300" y="565" width="30" height="20" as="geometry" />
        </mxCell>
        <mxCell id="TEfpkvqrKe-TD6mFksQv-33" value="sel 0" style="text;whiteSpace=wrap;html=1;" vertex="1" parent="1">
          <mxGeometry x="300" y="585" width="30" height="20" as="geometry" />
        </mxCell>
        <mxCell id="TEfpkvqrKe-TD6mFksQv-34" value="D" style="text;whiteSpace=wrap;html=1;" vertex="1" parent="1">
          <mxGeometry x="490" y="430" width="30" height="20" as="geometry" />
        </mxCell>
        <mxCell id="TEfpkvqrKe-TD6mFksQv-35" value="Q" style="text;whiteSpace=wrap;html=1;" vertex="1" parent="1">
          <mxGeometry x="538.75" y="430" width="20" height="20" as="geometry" />
        </mxCell>
      </root>
    </mxGraphModel>
  </diagram>
</mxfile>
